STARTFONT 2.1
COMMENT
COMMENT Converted from OpenType font "Q:\font stuff\winfont\namco regular.ttf" by "otf2bdf 3.0".
COMMENT
FONT -FreeType-namco regular-Medium-R-Normal--36-360-72-72-P-102-ISO10646-1
SIZE 36 72 72
FONTBOUNDINGBOX 106 37 -1 -6
STARTPROPERTIES 19
FOUNDRY "FreeType"
FAMILY_NAME "namco regular"
WEIGHT_NAME "Medium"
SLANT "R"
SETWIDTH_NAME "Normal"
ADD_STYLE_NAME ""
PIXEL_SIZE 36
POINT_SIZE 360
RESOLUTION_X 72
RESOLUTION_Y 72
SPACING "P"
AVERAGE_WIDTH 102
CHARSET_REGISTRY "ISO10646"
CHARSET_ENCODING "1"
FONT_ASCENT 30
FONT_DESCENT 5
COPYRIGHT "akihiro love namco (C) 1998"
_OTF_FONTFILE "Q:\font stuff\winfont\namco regular.ttf"
_OTF_PSNAME "namco regular"
ENDPROPERTIES
CHARS 219
STARTCHAR 0020
ENCODING 32
SWIDTH 500 0
DWIDTH 18 0
BBX 0 0 0 0
BITMAP
ENDCHAR
STARTCHAR 0021
ENCODING 33
SWIDTH 388 0
DWIDTH 14 0
BBX 11 36 0 -6
BITMAP
FFE0
FFE0
FFE0
FFE0
FFE0
FFE0
FFE0
FFE0
FFE0
FFE0
FFE0
FFE0
FFE0
FFE0
FFE0
FFE0
FFE0
FFE0
FFE0
FFE0
FFE0
FFE0
FFE0
FFE0
FFE0
FFE0
FFE0
FFE0
0000
0000
FFE0
FFE0
FFE0
FFE0
FFE0
FFE0
ENDCHAR
STARTCHAR 0022
ENCODING 34
SWIDTH 500 0
DWIDTH 18 0
BBX 0 0 0 0
BITMAP
ENDCHAR
STARTCHAR 0023
ENCODING 35
SWIDTH 500 0
DWIDTH 18 0
BBX 0 0 0 0
BITMAP
ENDCHAR
STARTCHAR 0024
ENCODING 36
SWIDTH 500 0
DWIDTH 18 0
BBX 0 0 0 0
BITMAP
ENDCHAR
STARTCHAR 0025
ENCODING 37
SWIDTH 500 0
DWIDTH 18 0
BBX 0 0 0 0
BITMAP
ENDCHAR
STARTCHAR 0026
ENCODING 38
SWIDTH 500 0
DWIDTH 18 0
BBX 0 0 0 0
BITMAP
ENDCHAR
STARTCHAR 0027
ENCODING 39
SWIDTH 500 0
DWIDTH 18 0
BBX 0 0 0 0
BITMAP
ENDCHAR
STARTCHAR 0028
ENCODING 40
SWIDTH 1805 0
DWIDTH 65 0
BBX 64 34 0 -5
BITMAP
0000000380000000
0000007E80000000
00000FFCC0000000
00007C8CC0000000
000FE88CC0000000
01FE0484C0000000
0FE20480C0000000
1C627E10E0000000
3C220610E0000000
1E120F19E0000000
1202311FC0000000
2A0101FC00000000
7321078000000000
CF33BC0000000000
CF3FE0000000018C
8CCC99F1F7C78292
880489111629C252
88C705191B11C126
880727191B13C107
C80F271D1D83E18F
681F071F1C87F087
780F030302C78906
1886030302478906
088603030347F904
0886030303C7FD04
0886010303C67E24
0886010303C67E22
0884010303C67E72
088C018303FE2372
07FFFFFFFFBE03FE
01FFFFFFFFBE03FF
00FFFFFFFF9E01FF
007FFFFF9F9E01E7
007FFFEF9F9E00E7
ENDCHAR
STARTCHAR 0029
ENCODING 41
SWIDTH 500 0
DWIDTH 18 0
BBX 0 0 0 0
BITMAP
ENDCHAR
STARTCHAR 002A
ENCODING 42
SWIDTH 944 0
DWIDTH 34 0
BBX 33 33 1 -4
BITMAP
0000060000
0001FDA000
0006044000
0008619000
0030E23000
0041CC0800
C040820400
E0830C0400
709F300200
7ED1080200
7F6C000200
FF7200CE00
7F78079600
7F7FFF9A00
313FFF1900
13BFFE3D00
0C9FFC3D80
004FF87E00
0027E07E00
001001FE00
000F03FC00
0007FFF800
0004FFF800
000EEFF800
000FFFE000
000BFF0000
003FDF0000
00DFFF8000
013F7F8000
01FCFF8000
01FDFF8000
000BFF8000
0007FE0000
ENDCHAR
STARTCHAR 002B
ENCODING 43
SWIDTH 2083 0
DWIDTH 75 0
BBX 71 33 1 -3
BITMAP
000007801001800000
00003F003000FF0000
0000FE20600007E000
0003F829CC0000F000
0007F95BF810007800
0001FEDFFFE0001C00
0003E0FFFFF3001C00
0003C0FFFFFE001C00
0003C0FFFFFFF01C00
0007C0FCDBFFFE3C00
0003C1F157FF003C00
0003E1FD27F0007800
0007F3FD5FF000F800
0003FFFDFC7F03F000
0003FFFEF2A4FFE000
0001FF0B926CFFE000
0001FF1B936DFF8000
00007FD9FF66FF0000
00003FDFFFFFF00000
00001FFFFC77800000
00003FE000F7800000
0001FFF003FFE00000
1FE6DFDCE73A9F9FF0
139C008D1C03906010
11843885180373E030
11C4388518E33D4390
11C2008518221FC190
13C2018710221FE290
138203CF1042183310
138221F210020C3C30
10043EE310EA003E30
100BF0E711FF003F90
FFFFFFFFFFFFFFFFFE
ENDCHAR
STARTCHAR 002C
ENCODING 44
SWIDTH 500 0
DWIDTH 18 0
BBX 0 0 0 0
BITMAP
ENDCHAR
STARTCHAR 002D
ENCODING 45
SWIDTH 2944 0
DWIDTH 106 0
BBX 106 30 -1 -1
BITMAP
000FFFFFFFFFFFFFFFFFFFFFFF00
001FFFF80FFFFFFFFFFFFFFFFF80
007E007C067807FC030000000FC0
007F00FC0F7807FC0780F01E1FC0
003F81F81F3C07FC0FC0F01E3F00
001FC3F03E3C0FFC1FE0F01E7E00
000FC3E07C3C0FFC3FF0F01EFC00
0007E7C0F81E0FBC3FF8F01FF800
0003FF80F81E0FBC7CFCF01FF000
0001FF01F00E1F3CF87EF01FF800
0000FF03FFFF1F3DF83FF01EFC00
00007E07FFFF1F3FF00FF01E7E00
0001FF07FFFF1E3FF01FF01E3E00
0003FF83E0073E3FF83FF01E1F00
0007E7C1F007BE3FFC7FFC3E1F80
000FC3E0F803BC3DFEFFFE7E0FC0
001F83F07803BC3C7FFC7FFC07C0
003F01F83C03FC3C3FF83FF80F80
007E00FC3E01F83C1FF01FF81F00
00FC007E1F01F83C0FE00FF07E00
01F8003C0F81F03C07C007E0FC00
03F000180700F03C038003C1F800
07FFFFFFFFFC00001FFFFFFFF000
0FFFFFFFFFFF00007FFFFFFFE000
1FC00000000FFFFFF80000000000
3F8000000007FFFFF00000000000
7F00000000000000000000000000
FE00000000000000000000000000
7C00000000000000000000000000
3000000000000000000000000000
ENDCHAR
STARTCHAR 002E
ENCODING 46
SWIDTH 500 0
DWIDTH 18 0
BBX 0 0 0 0
BITMAP
ENDCHAR
STARTCHAR 002F
ENCODING 47
SWIDTH 500 0
DWIDTH 18 0
BBX 0 0 0 0
BITMAP
ENDCHAR
STARTCHAR 0030
ENCODING 48
SWIDTH 1305 0
DWIDTH 47 0
BBX 44 36 0 -6
BITMAP
007FFFFFF000
03FFFFFFFC00
07FFFFFFFF00
1FFFFFFFFF80
3FFFFFFFFFC0
3FFFFFFFFFC0
7FFFFFFFFFE0
7FFFFFFFFFE0
FFFFFFFFFFF0
FFFFFFFFFFF0
FFFFFFFFFFF0
FFE000007FF0
FFE000007FF0
FFE000007FF0
FFE0FFF07FF0
FFE0FFF07FF0
FFE0FFF07FF0
FFE0FFF07FF0
FFE0FFF07FF0
FFE0FFF07FF0
FFE0FFF07FF0
FFE0FFF07FF0
FFE000007FF0
FFE000007FF0
FFE000007FF0
FFFFFFFFFFF0
FFFFFFFFFFF0
FFFFFFFFFFF0
7FFFFFFFFFE0
7FFFFFFFFFE0
3FFFFFFFFFC0
3FFFFFFFFFC0
1FFFFFFFFF80
0FFFFFFFFF00
07FFFFFFFC00
00FFFFFFF000
ENDCHAR
STARTCHAR 0031
ENCODING 49
SWIDTH 722 0
DWIDTH 26 0
BBX 22 36 0 -6
BITMAP
FFFC00
FFFF00
FFFFC0
FFFFE0
FFFFF0
FFFFF0
FFFFF8
FFFFF8
FFFFFC
FFFFFC
FFFFFC
001FFC
001FFC
001FFC
001FFC
001FFC
001FFC
001FFC
001FFC
001FFC
001FFC
001FFC
001FFC
001FFC
001FFC
001FFC
001FFC
001FFC
001FFC
001FFC
001FFC
001FFC
001FFC
001FFC
001FFC
001FFC
ENDCHAR
STARTCHAR 0032
ENCODING 50
SWIDTH 1305 0
DWIDTH 47 0
BBX 44 36 0 -6
BITMAP
FFFFFFFFF000
FFFFFFFFFE00
FFFFFFFFFF00
FFFFFFFFFFC0
FFFFFFFFFFC0
FFFFFFFFFFE0
FFFFFFFFFFF0
FFFFFFFFFFF0
FFFFFFFFFFF0
000000007FF0
000000007FF0
000000007FF0
000000007FF0
000000007FF0
01FFFFFFFFF0
07FFFFFFFFF0
0FFFFFFFFFF0
3FFFFFFFFFE0
7FFFFFFFFFC0
7FFFFFFFFF80
FFFFFFFFFE00
FFFFFFFFF800
FFE000000000
FFE000000000
FFE000000000
FFE000000000
FFE000000000
FFE000000000
FFFFFFFFFFF0
FFFFFFFFFFF0
FFFFFFFFFFF0
FFFFFFFFFFF0
FFFFFFFFFFF0
FFFFFFFFFFF0
FFFFFFFFFFF0
FFFFFFFFFFF0
ENDCHAR
STARTCHAR 0033
ENCODING 51
SWIDTH 1305 0
DWIDTH 47 0
BBX 44 36 0 -6
BITMAP
FFFFFFFFF000
FFFFFFFFFE00
FFFFFFFFFF00
FFFFFFFFFFC0
FFFFFFFFFFC0
FFFFFFFFFFE0
FFFFFFFFFFF0
FFFFFFFFFFF0
FFFFFFFFFFF0
000000007FF0
000000007FF0
000000007FF0
000000007FF0
000000007FF0
001FFFFFFFF0
001FFFFFFFF0
001FFFFFFFE0
001FFFFFFFE0
001FFFFFFFE0
001FFFFFFFE0
001FFFFFFFF0
001FFFFFFFF0
000000007FF0
000000007FF0
000000007FF0
000000007FF0
000000007FF0
000000007FF0
FFFFFFFFFFF0
FFFFFFFFFFF0
FFFFFFFFFFE0
FFFFFFFFFFE0
FFFFFFFFFFC0
FFFFFFFFFF00
FFFFFFFFFE00
FFFFFFFFF800
ENDCHAR
STARTCHAR 0034
ENCODING 52
SWIDTH 1305 0
DWIDTH 47 0
BBX 44 36 0 -6
BITMAP
FFE000007FF0
FFE000007FF0
FFE000007FF0
FFE000007FF0
FFE000007FF0
FFE000007FF0
FFE000007FF0
FFE000007FF0
FFE000007FF0
FFE000007FF0
FFE000007FF0
FFE000007FF0
FFE000007FF0
FFE000007FF0
FFFFFFFFFFF0
FFFFFFFFFFF0
FFFFFFFFFFF0
7FFFFFFFFFF0
7FFFFFFFFFF0
3FFFFFFFFFF0
3FFFFFFFFFF0
1FFFFFFFFFF0
0FFFFFFFFFF0
07FFFFFFFFF0
00FFFFFFFFF0
000000007FF0
000000007FF0
000000007FF0
000000007FF0
000000007FF0
000000007FF0
000000007FF0
000000007FF0
000000007FF0
000000007FF0
000000007FF0
ENDCHAR
STARTCHAR 0035
ENCODING 53
SWIDTH 1305 0
DWIDTH 47 0
BBX 44 36 0 -6
BITMAP
FFFFFFFFFFF0
FFFFFFFFFFF0
FFFFFFFFFFF0
FFFFFFFFFFF0
FFFFFFFFFFF0
FFFFFFFFFFF0
FFFFFFFFFFF0
FFFFFFFFFFF0
FFFFFFFFFFF0
FFE000000000
FFE000000000
FFE000000000
FFE000000000
FFE000000000
FFFFFFFFF800
FFFFFFFFFE00
7FFFFFFFFF80
7FFFFFFFFFC0
3FFFFFFFFFE0
1FFFFFFFFFE0
07FFFFFFFFF0
01FFFFFFFFF0
000000007FF0
000000007FF0
000000007FF0
000000007FF0
000000007FF0
000000007FF0
FFFFFFFFFFF0
FFFFFFFFFFF0
FFFFFFFFFFE0
FFFFFFFFFFE0
FFFFFFFFFFC0
FFFFFFFFFF00
FFFFFFFFFE00
FFFFFFFFF800
ENDCHAR
STARTCHAR 0036
ENCODING 54
SWIDTH 1305 0
DWIDTH 47 0
BBX 44 36 0 -6
BITMAP
FFE000000000
FFE000000000
FFE000000000
FFE000000000
FFE000000000
FFE000000000
FFE000000000
FFE000000000
FFFFFFFF8000
FFFFFFFFF800
FFFFFFFFFE00
FFFFFFFFFF00
FFFFFFFFFF80
FFFFFFFFFFC0
FFFFFFFFFFC0
FFFFFFFFFFE0
FFFFFFFFFFF0
FFFFFFFFFFF0
FFFFFFFFFFF0
FFE000007FF0
FFE000007FF0
FFE000007FF0
FFE000007FF0
FFE000007FF0
FFE000007FF0
FFFFFFFFFFF0
FFFFFFFFFFF0
FFFFFFFFFFF0
7FFFFFFFFFE0
7FFFFFFFFFE0
3FFFFFFFFFE0
3FFFFFFFFFC0
1FFFFFFFFF80
0FFFFFFFFF00
03FFFFFFFC00
00FFFFFFF000
ENDCHAR
STARTCHAR 0037
ENCODING 55
SWIDTH 1305 0
DWIDTH 47 0
BBX 44 36 0 -6
BITMAP
FFFFFFFFF000
FFFFFFFFFC00
FFFFFFFFFF00
FFFFFFFFFF80
FFFFFFFFFFC0
FFFFFFFFFFC0
FFFFFFFFFFE0
FFFFFFFFFFE0
FFFFFFFFFFF0
FFFFFFFFFFF0
FFFFFFFFFFF0
FFE000007FF0
FFE000007FF0
FFE000007FF0
FFE000007FF0
FFE000007FF0
FFE000007FF0
FFE000007FF0
FFE000007FF0
FFE000007FF0
000000007FF0
000000007FF0
000000007FF0
000000007FF0
000000007FF0
000000007FF0
000000007FF0
000000007FF0
000000007FF0
000000007FF0
000000007FF0
000000007FF0
000000007FF0
000000007FF0
000000007FF0
000000007FF0
ENDCHAR
STARTCHAR 0038
ENCODING 56
SWIDTH 1305 0
DWIDTH 47 0
BBX 44 36 0 -6
BITMAP
00FFFFFFF000
07FFFFFFFE00
0FFFFFFFFF00
1FFFFFFFFFC0
7FFFFFFFFFC0
7FFFFFFFFFE0
FFFFFFFFFFF0
FFFFFFFFFFF0
FFFFFFFFFFF0
FFE000007FF0
FFE000007FF0
FFE000007FF0
FFE000007FF0
FFE000007FF0
FFFFFFFFFFF0
FFFFFFFFFFF0
7FFFFFFFFFE0
7FFFFFFFFFE0
7FFFFFFFFFE0
7FFFFFFFFFE0
FFFFFFFFFFF0
FFFFFFFFFFF0
FFE000007FF0
FFE000007FF0
FFE000007FF0
FFE000007FF0
FFE000007FF0
FFE000007FF0
FFFFFFFFFFF0
FFFFFFFFFFF0
7FFFFFFFFFE0
7FFFFFFFFFE0
3FFFFFFFFFC0
1FFFFFFFFF00
07FFFFFFFE00
01FFFFFFF800
ENDCHAR
STARTCHAR 0039
ENCODING 57
SWIDTH 1305 0
DWIDTH 47 0
BBX 44 36 0 -6
BITMAP
00FFFFFFF000
07FFFFFFFE00
0FFFFFFFFF00
3FFFFFFFFFC0
7FFFFFFFFFC0
7FFFFFFFFFE0
FFFFFFFFFFF0
FFFFFFFFFFF0
FFE000007FF0
FFE000007FF0
FFE000007FF0
FFE000007FF0
FFE000007FF0
FFE000007FF0
FFFFFFFFFFF0
FFFFFFFFFFF0
7FFFFFFFFFF0
7FFFFFFFFFF0
3FFFFFFFFFF0
1FFFFFFFFFF0
0FFFFFFFFFF0
01FFFFFFFFF0
000000007FF0
000000007FF0
000000007FF0
000000007FF0
000000007FF0
000000007FF0
FFFFFFFFFFF0
FFFFFFFFFFF0
FFFFFFFFFFE0
FFFFFFFFFFE0
FFFFFFFFFFC0
FFFFFFFFFF00
FFFFFFFFFE00
FFFFFFFFF800
ENDCHAR
STARTCHAR 003A
ENCODING 58
SWIDTH 500 0
DWIDTH 18 0
BBX 0 0 0 0
BITMAP
ENDCHAR
STARTCHAR 003B
ENCODING 59
SWIDTH 500 0
DWIDTH 18 0
BBX 0 0 0 0
BITMAP
ENDCHAR
STARTCHAR 003C
ENCODING 60
SWIDTH 1777 0
DWIDTH 64 0
BBX 64 36 0 -5
BITMAP
00000000007F8000
0000000003FF7000
000000001FFFF800
000000002FFFFE00
00000000FFFFFF00
00000000FFFFFF80
00000000FFFFFFC0
00000001FFFFFFE0
00000001FFFEFDE0
000000007FFFFEF0
000000002FFFDF70
000000001FFFE778
000000002FFFFFD8
000000003FFF7BBE
00000001EFFFDDC2
1FFFFFFFDFFFFF81
21821041F5062089
21927041F904208A
2192F0516124130A
2116E453A12433F2
213C23D261041374
493C279201093364
4124E4928908334C
4124E4A28948334C
4925C4A291483388
8905C0829151239C
990C418293112302
FFFFFF8C92132304
0000007BFDFFFFF8
0000000BEF9FF200
000000055FFF7200
00000002F7FFA000
00000001FFFD4000
00000000DFFAC000
00000000338D8000
000000001FF20000
ENDCHAR
STARTCHAR 003D
ENCODING 61
SWIDTH 1500 0
DWIDTH 54 0
BBX 54 26 0 4
BITMAP
00000000071800
0100000087BC00
03800001CFFC00
03E0C000EF7000
07E1F000FF0000
0FE3F6007F0000
0FFBF7003FFC00
1FFFEE07FF8000
1F9FCE0039CFFC
1F8FDC007FF800
3F8FBC07FDF000
3ECBFF3FE1F800
7EE0301163BC00
7DC03F00EE1F00
ABE1FF81838380
83E3F0011FC060
00C0B800038000
0080B8007FFC00
00B0CC00038000
0CB18E00038000
07F10700038000
07C203801F8000
03F203800F8000
0780014007C000
1C00008003C000
1000000003C000
ENDCHAR
STARTCHAR 003E
ENCODING 62
SWIDTH 500 0
DWIDTH 18 0
BBX 0 0 0 0
BITMAP
ENDCHAR
STARTCHAR 003F
ENCODING 63
SWIDTH 1305 0
DWIDTH 47 0
BBX 44 36 0 -6
BITMAP
00FFFFFFF000
03FFFFFFFE00
0FFFFFFFFF00
1FFFFFFFFFC0
7FFFFFFFFFE0
7FFFFFFFFFE0
FFFFFFFFFFF0
FFFFFFFFFFF0
FFE000007FF0
FFE000007FF0
FFE000007FF0
FFE000007FF0
FFE000007FF0
FFE000007FF0
000000FFFFF0
000003FFFFF0
00000FFFFFF0
00001FFFFFE0
00003FFFFFC0
00007FFFFF80
00007FFFFE00
00007FFFFC00
00007FF00000
00007FF00000
00007FF00000
00007FF00000
00007FF00000
00007FF00000
000000000000
000000000000
00007FF00000
00007FF00000
00007FF00000
00007FF00000
00007FF00000
00007FF00000
ENDCHAR
STARTCHAR 0040
ENCODING 64
SWIDTH 472 0
DWIDTH 17 0
BBX 14 14 0 17
BITMAP
0FC0
1FE0
7870
6F98
ECDC
CCCC
CD8C
CF0C
CD8C
ECDC
6CD8
3870
1FE0
0FC0
ENDCHAR
STARTCHAR 0041
ENCODING 65
SWIDTH 500 0
DWIDTH 18 0
BBX 0 0 0 0
BITMAP
ENDCHAR
STARTCHAR 0042
ENCODING 66
SWIDTH 1305 0
DWIDTH 47 0
BBX 44 36 0 -6
BITMAP
FFE000000000
FFE000000000
FFE000000000
FFE000000000
FFE000000000
FFE000000000
FFE000000000
FFE000000000
FFE000000000
FFFFFFFFF800
FFFFFFFFFE00
FFFFFFFFFF00
FFFFFFFFFF80
FFFFFFFFFFC0
FFFFFFFFFFC0
FFFFFFFFFFE0
FFFFFFFFFFE0
FFFFFFFFFFF0
FFFFFFFFFFF0
FFE000007FF0
FFE000007FF0
FFE000007FF0
FFE000007FF0
FFE000007FF0
FFE000007FF0
FFFFFFFFFFF0
FFFFFFFFFFF0
FFFFFFFFFFF0
FFFFFFFFFFE0
FFFFFFFFFFE0
FFFFFFFFFFC0
FFFFFFFFFFC0
FFFFFFFFFF80
FFFFFFFFFF00
FFFFFFFFFC00
FFFFFFFFF000
ENDCHAR
STARTCHAR 0043
ENCODING 67
SWIDTH 500 0
DWIDTH 18 0
BBX 0 0 0 0
BITMAP
ENDCHAR
STARTCHAR 0044
ENCODING 68
SWIDTH 1305 0
DWIDTH 47 0
BBX 44 36 0 -6
BITMAP
000000007FF0
000000007FF0
000000007FF0
000000007FF0
000000007FF0
000000007FF0
000000007FF0
000000007FF0
000000007FF0
01FFFFFFFFF0
07FFFFFFFFF0
0FFFFFFFFFF0
1FFFFFFFFFF0
3FFFFFFFFFF0
7FFFFFFFFFF0
7FFFFFFFFFF0
FFFFFFFFFFF0
FFFFFFFFFFF0
FFFFFFFFFFF0
FFE000007FF0
FFE000007FF0
FFE000007FF0
FFE000007FF0
FFE000007FF0
FFE000007FF0
FFFFFFFFFFF0
FFFFFFFFFFF0
FFFFFFFFFFF0
7FFFFFFFFFF0
7FFFFFFFFFF0
3FFFFFFFFFF0
3FFFFFFFFFF0
1FFFFFFFFFF0
0FFFFFFFFFF0
07FFFFFFFFF0
00FFFFFFFFF0
ENDCHAR
STARTCHAR 0045
ENCODING 69
SWIDTH 500 0
DWIDTH 18 0
BBX 0 0 0 0
BITMAP
ENDCHAR
STARTCHAR 0046
ENCODING 70
SWIDTH 500 0
DWIDTH 18 0
BBX 0 0 0 0
BITMAP
ENDCHAR
STARTCHAR 0047
ENCODING 71
SWIDTH 500 0
DWIDTH 18 0
BBX 0 0 0 0
BITMAP
ENDCHAR
STARTCHAR 0048
ENCODING 72
SWIDTH 500 0
DWIDTH 18 0
BBX 0 0 0 0
BITMAP
ENDCHAR
STARTCHAR 0049
ENCODING 73
SWIDTH 500 0
DWIDTH 18 0
BBX 0 0 0 0
BITMAP
ENDCHAR
STARTCHAR 004A
ENCODING 74
SWIDTH 500 0
DWIDTH 18 0
BBX 0 0 0 0
BITMAP
ENDCHAR
STARTCHAR 004B
ENCODING 75
SWIDTH 500 0
DWIDTH 18 0
BBX 0 0 0 0
BITMAP
ENDCHAR
STARTCHAR 004C
ENCODING 76
SWIDTH 500 0
DWIDTH 18 0
BBX 0 0 0 0
BITMAP
ENDCHAR
STARTCHAR 004D
ENCODING 77
SWIDTH 500 0
DWIDTH 18 0
BBX 0 0 0 0
BITMAP
ENDCHAR
STARTCHAR 004E
ENCODING 78
SWIDTH 500 0
DWIDTH 18 0
BBX 0 0 0 0
BITMAP
ENDCHAR
STARTCHAR 004F
ENCODING 79
SWIDTH 500 0
DWIDTH 18 0
BBX 0 0 0 0
BITMAP
ENDCHAR
STARTCHAR 0050
ENCODING 80
SWIDTH 500 0
DWIDTH 18 0
BBX 0 0 0 0
BITMAP
ENDCHAR
STARTCHAR 0051
ENCODING 81
SWIDTH 500 0
DWIDTH 18 0
BBX 0 0 0 0
BITMAP
ENDCHAR
STARTCHAR 0052
ENCODING 82
SWIDTH 444 0
DWIDTH 16 0
BBX 14 14 0 17
BITMAP
0FC0
1FE0
7870
6F98
ECDC
CCCC
CD8C
CF0C
CD8C
ECDC
6CD8
3870
1FE0
0FC0
ENDCHAR
STARTCHAR 0053
ENCODING 83
SWIDTH 500 0
DWIDTH 18 0
BBX 0 0 0 0
BITMAP
ENDCHAR
STARTCHAR 0054
ENCODING 84
SWIDTH 500 0
DWIDTH 18 0
BBX 0 0 0 0
BITMAP
ENDCHAR
STARTCHAR 0055
ENCODING 85
SWIDTH 500 0
DWIDTH 18 0
BBX 0 0 0 0
BITMAP
ENDCHAR
STARTCHAR 0056
ENCODING 86
SWIDTH 500 0
DWIDTH 18 0
BBX 0 0 0 0
BITMAP
ENDCHAR
STARTCHAR 0057
ENCODING 87
SWIDTH 500 0
DWIDTH 18 0
BBX 0 0 0 0
BITMAP
ENDCHAR
STARTCHAR 0058
ENCODING 88
SWIDTH 500 0
DWIDTH 18 0
BBX 0 0 0 0
BITMAP
ENDCHAR
STARTCHAR 0059
ENCODING 89
SWIDTH 500 0
DWIDTH 18 0
BBX 0 0 0 0
BITMAP
ENDCHAR
STARTCHAR 005A
ENCODING 90
SWIDTH 500 0
DWIDTH 18 0
BBX 0 0 0 0
BITMAP
ENDCHAR
STARTCHAR 005B
ENCODING 91
SWIDTH 500 0
DWIDTH 18 0
BBX 0 0 0 0
BITMAP
ENDCHAR
STARTCHAR 005C
ENCODING 92
SWIDTH 500 0
DWIDTH 18 0
BBX 0 0 0 0
BITMAP
ENDCHAR
STARTCHAR 005D
ENCODING 93
SWIDTH 500 0
DWIDTH 18 0
BBX 0 0 0 0
BITMAP
ENDCHAR
STARTCHAR 005E
ENCODING 94
SWIDTH 500 0
DWIDTH 18 0
BBX 0 0 0 0
BITMAP
ENDCHAR
STARTCHAR 005F
ENCODING 95
SWIDTH 500 0
DWIDTH 18 0
BBX 0 0 0 0
BITMAP
ENDCHAR
STARTCHAR 0060
ENCODING 96
SWIDTH 500 0
DWIDTH 18 0
BBX 0 0 0 0
BITMAP
ENDCHAR
STARTCHAR 0061
ENCODING 97
SWIDTH 1305 0
DWIDTH 47 0
BBX 44 36 0 -6
BITMAP
FFFFFFFFF000
FFFFFFFFFC00
FFFFFFFFFF00
FFFFFFFFFF80
FFFFFFFFFFC0
FFFFFFFFFFC0
FFFFFFFFFFE0
FFFFFFFFFFF0
FFFFFFFFFFF0
000000007FF0
000000007FF0
000000007FF0
000000007FF0
000000007FF0
00FFFFFFFFF0
03FFFFFFFFF0
07FFFFFFFFF0
1FFFFFFFFFF0
3FFFFFFFFFF0
3FFFFFFFFFF0
7FFFFFFFFFF0
7FFFFFFFFFF0
FFE000007FF0
FFE000007FF0
FFE000007FF0
FFE000007FF0
FFE000007FF0
FFE000007FF0
7FFFFFFFFFF0
7FFFFFFFFFF0
3FFFFFFFFFF0
3FFFFFFFFFF0
1FFFFFFFFFF0
0FFFFFFFFFF0
03FFFFFFFFF0
00FFFFFFFFF0
ENDCHAR
STARTCHAR 0062
ENCODING 98
SWIDTH 1305 0
DWIDTH 47 0
BBX 44 36 0 -6
BITMAP
FFFFFFFFF000
FFFFFFFFFC00
FFFFFFFFFF00
FFFFFFFFFF80
FFFFFFFFFFC0
FFFFFFFFFFC0
FFFFFFFFFFE0
FFFFFFFFFFE0
FFE000007FF0
FFE000007FF0
FFE000007FF0
FFE000007FF0
FFE000007FF0
FFE000007FF0
FFFFFFFFFFF0
FFFFFFFFFFE0
FFFFFFFFFFE0
FFFFFFFFFFC0
FFFFFFFFFFC0
FFFFFFFFFFC0
FFFFFFFFFFE0
FFFFFFFFFFE0
FFE000007FF0
FFE000007FF0
FFE000007FF0
FFE000007FF0
FFE000007FF0
FFE000007FF0
FFFFFFFFFFF0
FFFFFFFFFFE0
FFFFFFFFFFE0
FFFFFFFFFFC0
FFFFFFFFFF80
FFFFFFFFFF00
FFFFFFFFFC00
FFFFFFFFF000
ENDCHAR
STARTCHAR 0063
ENCODING 99
SWIDTH 1305 0
DWIDTH 47 0
BBX 44 36 0 -6
BITMAP
007FFFFFFFF0
03FFFFFFFFF0
07FFFFFFFFF0
1FFFFFFFFFF0
3FFFFFFFFFF0
3FFFFFFFFFF0
7FFFFFFFFFF0
7FFFFFFFFFF0
FFFFFFFFFFF0
FFFFFFFFFFF0
FFFFFFFFFFF0
FFE000000000
FFE000000000
FFE000000000
FFE000000000
FFE000000000
FFE000000000
FFE000000000
FFE000000000
FFE000000000
FFE000000000
FFE000000000
FFE000000000
FFE000000000
FFE000000000
FFFFFFFFFFF0
FFFFFFFFFFF0
FFFFFFFFFFF0
7FFFFFFFFFF0
7FFFFFFFFFF0
3FFFFFFFFFF0
3FFFFFFFFFF0
1FFFFFFFFFF0
0FFFFFFFFFF0
03FFFFFFFFF0
00FFFFFFFFF0
ENDCHAR
STARTCHAR 0064
ENCODING 100
SWIDTH 1305 0
DWIDTH 47 0
BBX 44 36 0 -6
BITMAP
FFFFFFFFF000
FFFFFFFFFE00
FFFFFFFFFF00
FFFFFFFFFF80
FFFFFFFFFFC0
FFFFFFFFFFC0
FFFFFFFFFFE0
FFFFFFFFFFE0
FFFFFFFFFFF0
FFFFFFFFFFF0
FFFFFFFFFFF0
FFE000007FF0
FFE000007FF0
FFE000007FF0
FFE000007FF0
FFE000007FF0
FFE000007FF0
FFE000007FF0
FFE000007FF0
FFE000007FF0
FFE000007FF0
FFE000007FF0
FFE000007FF0
FFE000007FF0
FFE000007FF0
FFFFFFFFFFF0
FFFFFFFFFFF0
FFFFFFFFFFF0
FFFFFFFFFFE0
FFFFFFFFFFE0
FFFFFFFFFFE0
FFFFFFFFFFC0
FFFFFFFFFF80
FFFFFFFFFF00
FFFFFFFFFC00
FFFFFFFFF000
ENDCHAR
STARTCHAR 0065
ENCODING 101
SWIDTH 1305 0
DWIDTH 47 0
BBX 44 36 0 -6
BITMAP
007FFFFFF000
01FFFFFFFC00
07FFFFFFFF00
1FFFFFFFFF80
1FFFFFFFFFC0
3FFFFFFFFFC0
7FFFFFFFFFE0
7FFFFFFFFFE0
FFE000007FF0
FFE000007FF0
FFE000007FF0
FFE000007FF0
FFE000007FF0
FFE000007FF0
FFFFFFFFFFF0
FFFFFFFFFFF0
FFFFFFFFFFF0
FFFFFFFFFFF0
FFFFFFFFFFF0
FFFFFFFFFFF0
FFFFFFFFFFF0
FFFFFFFFFFF0
FFE000000000
FFE000000000
FFE000000000
FFE000000000
FFE000000000
FFE000000000
7FFFFFFFFFF0
7FFFFFFFFFF0
3FFFFFFFFFF0
3FFFFFFFFFF0
1FFFFFFFFFF0
0FFFFFFFFFF0
07FFFFFFFFF0
00FFFFFFFFF0
ENDCHAR
STARTCHAR 0066
ENCODING 102
SWIDTH 1305 0
DWIDTH 47 0
BBX 44 36 0 -6
BITMAP
00FFFFFFFFF0
03FFFFFFFFF0
0FFFFFFFFFF0
3FFFFFFFFFF0
7FFFFFFFFFF0
7FFFFFFFFFF0
FFFFFFFFFFF0
FFFFFFFFFFF0
FFE000000000
FFE000000000
FFE000000000
FFE000000000
FFE000000000
FFE000000000
FFFFFFFFFFF0
FFFFFFFFFFF0
FFFFFFFFFFF0
FFFFFFFFFFF0
FFFFFFFFFFF0
FFFFFFFFFFF0
FFFFFFFFFFF0
FFFFFFFFFFF0
FFE000000000
FFE000000000
FFE000000000
FFE000000000
FFE000000000
FFE000000000
FFE000000000
FFE000000000
FFE000000000
FFE000000000
FFE000000000
FFE000000000
FFE000000000
FFE000000000
ENDCHAR
STARTCHAR 0067
ENCODING 103
SWIDTH 1305 0
DWIDTH 47 0
BBX 44 36 0 -6
BITMAP
00FFFFFFFFF0
03FFFFFFFFF0
0FFFFFFFFFF0
1FFFFFFFFFF0
7FFFFFFFFFF0
7FFFFFFFFFF0
FFFFFFFFFFF0
FFFFFFFFFFF0
FFFFFFFFFFF0
FFE000000000
FFE000000000
FFE000000000
FFE000000000
FFE000000000
FFE07FFFF000
FFE07FFFFE00
FFE07FFFFF80
FFE07FFFFFC0
FFE07FFFFFE0
FFE07FFFFFE0
FFE07FFFFFF0
FFE07FFFFFF0
FFE000007FF0
FFE000007FF0
FFE000007FF0
FFE000007FF0
FFE000007FF0
FFE000007FF0
FFFFFFFFFFF0
FFFFFFFFFFF0
7FFFFFFFFFE0
7FFFFFFFFFE0
3FFFFFFFFFC0
1FFFFFFFFF00
07FFFFFFFE00
00FFFFFFF000
ENDCHAR
STARTCHAR 0068
ENCODING 104
SWIDTH 1305 0
DWIDTH 47 0
BBX 44 36 0 -6
BITMAP
FFE000000000
FFE000000000
FFE000000000
FFE000000000
FFE000000000
FFE000000000
FFE000000000
FFE000000000
FFE000000000
FFFFFFFFF800
FFFFFFFFFE00
FFFFFFFFFF00
FFFFFFFFFF80
FFFFFFFFFFC0
FFFFFFFFFFC0
FFFFFFFFFFE0
FFFFFFFFFFE0
FFFFFFFFFFF0
FFFFFFFFFFF0
FFFFFFFFFFF0
FFE000007FF0
FFE000007FF0
FFE000007FF0
FFE000007FF0
FFE000007FF0
FFE000007FF0
FFE000007FF0
FFE000007FF0
FFE000007FF0
FFE000007FF0
FFE000007FF0
FFE000007FF0
FFE000007FF0
FFE000007FF0
FFE000007FF0
FFE000007FF0
ENDCHAR
STARTCHAR 0069
ENCODING 105
SWIDTH 388 0
DWIDTH 14 0
BBX 11 36 0 -6
BITMAP
FFE0
FFE0
FFE0
FFE0
FFE0
FFE0
FFE0
FFE0
FFE0
FFE0
FFE0
FFE0
FFE0
FFE0
FFE0
FFE0
FFE0
FFE0
FFE0
FFE0
FFE0
FFE0
FFE0
FFE0
FFE0
FFE0
FFE0
FFE0
FFE0
FFE0
FFE0
FFE0
FFE0
FFE0
FFE0
FFE0
ENDCHAR
STARTCHAR 006A
ENCODING 106
SWIDTH 1305 0
DWIDTH 47 0
BBX 44 36 0 -6
BITMAP
000000007FF0
000000007FF0
000000007FF0
000000007FF0
000000007FF0
000000007FF0
000000007FF0
000000007FF0
000000007FF0
000000007FF0
000000007FF0
000000007FF0
000000007FF0
000000007FF0
000000007FF0
000000007FF0
000000007FF0
FFE000007FF0
FFE000007FF0
FFE000007FF0
FFE000007FF0
FFE000007FF0
FFE000007FF0
FFE000007FF0
FFE000007FF0
FFFFFFFFFFF0
FFFFFFFFFFF0
FFFFFFFFFFF0
7FFFFFFFFFF0
7FFFFFFFFFE0
3FFFFFFFFFE0
1FFFFFFFFFC0
1FFFFFFFFF80
0FFFFFFFFF00
03FFFFFFFC00
00FFFFFFF000
ENDCHAR
STARTCHAR 006B
ENCODING 107
SWIDTH 1305 0
DWIDTH 47 0
BBX 44 36 0 -6
BITMAP
FFE000007FF0
FFE000007FF0
FFE000007FF0
FFE000007FF0
FFE000007FF0
FFE000007FF0
FFE000007FF0
FFE000007FF0
FFE000007FF0
FFE000007FF0
FFE000007FF0
FFE000007FF0
FFE000007FF0
FFE000007FF0
FFFFFFFFFFF0
FFFFFFFFFFF0
FFFFFFFFFFE0
FFFFFFFFFFE0
FFFFFFFFFFE0
FFFFFFFFFFE0
FFFFFFFFFFF0
FFFFFFFFFFF0
FFE000007FF0
FFE000007FF0
FFE000007FF0
FFE000007FF0
FFE000007FF0
FFE000007FF0
FFE000007FF0
FFE000007FF0
FFE000007FF0
FFE000007FF0
FFE000007FF0
FFE000007FF0
FFE000007FF0
FFE000007FF0
ENDCHAR
STARTCHAR 006C
ENCODING 108
SWIDTH 1305 0
DWIDTH 47 0
BBX 44 36 0 -6
BITMAP
FFE000000000
FFE000000000
FFE000000000
FFE000000000
FFE000000000
FFE000000000
FFE000000000
FFE000000000
FFE000000000
FFE000000000
FFE000000000
FFE000000000
FFE000000000
FFE000000000
FFE000000000
FFE000000000
FFE000000000
FFE000000000
FFE000000000
FFE000000000
FFE000000000
FFE000000000
FFE000000000
FFE000000000
FFE000000000
FFFFFFFFFFF0
FFFFFFFFFFF0
FFFFFFFFFFF0
7FFFFFFFFFF0
7FFFFFFFFFF0
3FFFFFFFFFF0
3FFFFFFFFFF0
1FFFFFFFFFF0
0FFFFFFFFFF0
03FFFFFFFFF0
00FFFFFFFFF0
ENDCHAR
STARTCHAR 006D
ENCODING 109
SWIDTH 1777 0
DWIDTH 64 0
BBX 61 36 0 -6
BITMAP
FFFFFFFFFFFFF000
FFFFFFFFFFFFFC00
FFFFFFFFFFFFFF00
FFFFFFFFFFFFFF80
FFFFFFFFFFFFFFC0
FFFFFFFFFFFFFFC0
FFFFFFFFFFFFFFE0
FFFFFFFFFFFFFFF0
FFFFFFFFFFFFFFF0
FFFFFFFFFFFFFFF0
FFFFFFFFFFFFFFF0
FFE0007FF0003FF8
FFE0007FF0003FF8
FFE0007FF0003FF8
FFE0007FF0003FF8
FFE0007FF0003FF8
FFE0007FF0003FF8
FFE0007FF0003FF8
FFE0007FF0003FF8
FFE0007FF0003FF8
FFE0007FF0003FF8
FFE0007FF0003FF8
FFE0007FF0003FF8
FFE0007FF0003FF8
FFE0007FF0003FF8
FFE0007FF0003FF8
FFE0007FF0003FF8
FFE0007FF0003FF8
FFE0007FF0003FF8
FFE0007FF0003FF8
FFE0007FF0003FF8
FFE0007FF0003FF8
FFE0007FF0003FF8
FFE0007FF0003FF8
FFE0007FF0003FF8
FFE0007FF0003FF8
ENDCHAR
STARTCHAR 006E
ENCODING 110
SWIDTH 1305 0
DWIDTH 47 0
BBX 44 36 0 -6
BITMAP
FFFFFFFFF000
FFFFFFFFFC00
FFFFFFFFFF00
FFFFFFFFFF80
FFFFFFFFFF80
FFFFFFFFFFC0
FFFFFFFFFFE0
FFFFFFFFFFE0
FFFFFFFFFFF0
FFFFFFFFFFF0
FFFFFFFFFFF0
FFE000007FF0
FFE000007FF0
FFE000007FF0
FFE000007FF0
FFE000007FF0
FFE000007FF0
FFE000007FF0
FFE000007FF0
FFE000007FF0
FFE000007FF0
FFE000007FF0
FFE000007FF0
FFE000007FF0
FFE000007FF0
FFE000007FF0
FFE000007FF0
FFE000007FF0
FFE000007FF0
FFE000007FF0
FFE000007FF0
FFE000007FF0
FFE000007FF0
FFE000007FF0
FFE000007FF0
FFE000007FF0
ENDCHAR
STARTCHAR 006F
ENCODING 111
SWIDTH 1305 0
DWIDTH 47 0
BBX 44 36 0 -6
BITMAP
007FFFFFE000
03FFFFFFFC00
07FFFFFFFF00
1FFFFFFFFF80
3FFFFFFFFF80
3FFFFFFFFFC0
7FFFFFFFFFE0
7FFFFFFFFFE0
FFFFFFFFFFF0
FFFFFFFFFFF0
FFFFFFFFFFF0
FFE000007FF0
FFE000007FF0
FFE000007FF0
FFE000007FF0
FFE000007FF0
FFE000007FF0
FFE000007FF0
FFE000007FF0
FFE000007FF0
FFE000007FF0
FFE000007FF0
FFE000007FF0
FFE000007FF0
FFE000007FF0
FFFFFFFFFFF0
FFFFFFFFFFF0
FFFFFFFFFFF0
7FFFFFFFFFE0
7FFFFFFFFFE0
3FFFFFFFFFC0
1FFFFFFFFFC0
1FFFFFFFFF80
0FFFFFFFFE00
03FFFFFFFC00
00FFFFFFF000
ENDCHAR
STARTCHAR 0070
ENCODING 112
SWIDTH 1305 0
DWIDTH 47 0
BBX 44 36 0 -6
BITMAP
FFFFFFFFE000
FFFFFFFFFC00
FFFFFFFFFF00
FFFFFFFFFF80
FFFFFFFFFFC0
FFFFFFFFFFC0
FFFFFFFFFFE0
FFFFFFFFFFE0
FFFFFFFFFFF0
FFFFFFFFFFF0
FFFFFFFFFFF0
FFE000007FF0
FFE000007FF0
FFE000007FF0
FFE000007FF0
FFE000007FF0
FFE000007FF0
FFFFFFFFFFF0
FFFFFFFFFFF0
FFFFFFFFFFF0
FFFFFFFFFFE0
FFFFFFFFFFE0
FFFFFFFFFFC0
FFFFFFFFFFC0
FFFFFFFFFF80
FFFFFFFFFE00
FFFFFFFFFC00
FFFFFFFFE000
FFE000000000
FFE000000000
FFE000000000
FFE000000000
FFE000000000
FFE000000000
FFE000000000
FFE000000000
ENDCHAR
STARTCHAR 0071
ENCODING 113
SWIDTH 1305 0
DWIDTH 47 0
BBX 47 36 0 -6
BITMAP
007FFFFFE000
03FFFFFFFC00
07FFFFFFFF00
1FFFFFFFFF80
3FFFFFFFFFC0
3FFFFFFFFFC0
7FFFFFFFFFE0
7FFFFFFFFFE0
FFFFFFFFFFF0
FFFFFFFFFFF0
FFFFFFFFFFF0
FFE000007FF0
FFE000007FF0
FFE000007FF0
FFE000007FF0
FFE000007FF0
FFE000007FF0
FFE000007FF0
FFE000007FF0
FFE000007FF0
FFE000007FF0
FFE000007FF0
FFE000007FF0
FFE000007FF0
FFE000007FF0
FFFFFFFFFFFE
FFFFFFFFFFFE
FFFFFFFFFFFE
7FFFFFFFFFFE
7FFFFFFFFFFE
3FFFFFFFFFFE
1FFFFFFFFFFE
1FFFFFFFFFFE
0FFFFFFFFFFE
03FFFFFFFFFE
00FFFFFFFFFE
ENDCHAR
STARTCHAR 0072
ENCODING 114
SWIDTH 1305 0
DWIDTH 47 0
BBX 44 36 0 -6
BITMAP
FFFFFFFFF000
FFFFFFFFFC00
FFFFFFFFFF00
FFFFFFFFFF80
FFFFFFFFFFC0
FFFFFFFFFFC0
FFFFFFFFFFE0
FFFFFFFFFFF0
FFE000007FF0
FFE000007FF0
FFE000007FF0
FFE000007FF0
FFE000007FF0
FFE000007FF0
FFFFFFFFFFF0
FFFFFFFFFFE0
FFFFFFFFFFE0
FFFFFFFFFFC0
FFFFFFFFFFE0
FFFFFFFFFFE0
FFFFFFFFFFF0
FFFFFFFFFFF0
FFE000007FF0
FFE000007FF0
FFE000007FF0
FFE000007FF0
FFE000007FF0
FFE000007FF0
FFE000007FF0
FFE000007FF0
FFE000007FF0
FFE000007FF0
FFE000007FF0
FFE000007FF0
FFE000007FF0
FFE000007FF0
ENDCHAR
STARTCHAR 0073
ENCODING 115
SWIDTH 1305 0
DWIDTH 47 0
BBX 44 36 0 -6
BITMAP
00FFFFFFFFF0
07FFFFFFFFF0
0FFFFFFFFFF0
3FFFFFFFFFF0
3FFFFFFFFFF0
7FFFFFFFFFF0
FFFFFFFFFFF0
FFFFFFFFFFF0
FFE000000000
FFE000000000
FFE000000000
FFE000000000
FFE000000000
FFE000000000
FFFFFFFFF000
FFFFFFFFFE00
7FFFFFFFFF80
7FFFFFFFFFC0
3FFFFFFFFFE0
1FFFFFFFFFE0
0FFFFFFFFFF0
01FFFFFFFFF0
000000007FF0
000000007FF0
000000007FF0
000000007FF0
000000007FF0
000000007FF0
FFFFFFFFFFF0
FFFFFFFFFFF0
FFFFFFFFFFE0
FFFFFFFFFFE0
FFFFFFFFFFC0
FFFFFFFFFF80
FFFFFFFFFE00
FFFFFFFFF800
ENDCHAR
STARTCHAR 0074
ENCODING 116
SWIDTH 1305 0
DWIDTH 47 0
BBX 44 36 0 -6
BITMAP
FFFFFFFFFFF0
FFFFFFFFFFF0
FFFFFFFFFFF0
FFFFFFFFFFF0
FFFFFFFFFFF0
FFFFFFFFFFF0
FFFFFFFFFFF0
FFFFFFFFFFF0
FFFFFFFFFFF0
FFFFFFFFFFF0
FFFFFFFFFFF0
00007FF00000
00007FF00000
00007FF00000
00007FF00000
00007FF00000
00007FF00000
00007FF00000
00007FF00000
00007FF00000
00007FF00000
00007FF00000
00007FF00000
00007FF00000
00007FF00000
00007FF00000
00007FF00000
00007FF00000
00007FF00000
00007FF00000
00007FF00000
00007FF00000
00007FF00000
00007FF00000
00007FF00000
00007FF00000
ENDCHAR
STARTCHAR 0075
ENCODING 117
SWIDTH 1305 0
DWIDTH 47 0
BBX 44 36 0 -6
BITMAP
FFE000007FF0
FFE000007FF0
FFE000007FF0
FFE000007FF0
FFE000007FF0
FFE000007FF0
FFE000007FF0
FFE000007FF0
FFE000007FF0
FFE000007FF0
FFE000007FF0
FFE000007FF0
FFE000007FF0
FFE000007FF0
FFE000007FF0
FFE000007FF0
FFE000007FF0
FFE000007FF0
FFE000007FF0
FFE000007FF0
FFE000007FF0
FFE000007FF0
FFE000007FF0
FFE000007FF0
FFE000007FF0
FFFFFFFFFFF0
FFFFFFFFFFF0
FFFFFFFFFFF0
7FFFFFFFFFF0
7FFFFFFFFFF0
3FFFFFFFFFF0
3FFFFFFFFFF0
1FFFFFFFFFF0
0FFFFFFFFFF0
07FFFFFFFFF0
00FFFFFFFFF0
ENDCHAR
STARTCHAR 0076
ENCODING 118
SWIDTH 1305 0
DWIDTH 47 0
BBX 44 36 0 -6
BITMAP
FFE000007FF0
FFE000007FF0
FFE000007FF0
FFE000007FF0
FFE000007FF0
FFE000007FF0
FFE000007FF0
FFE000007FF0
FFE000007FF0
FFE000007FF0
FFE000007FF0
FFE000007FF0
FFE000007FF0
FFE000007FF0
FFE000007FF0
FFE000007FF0
FFE000007FF0
FFE000007FF0
FFE000007FF0
FFE000007FF0
FFE000007FF0
FFE000007FF0
FFE000007FF0
FFE000007FF0
FFE000007FF0
FFFFFFFFFFF0
FFFFFFFFFFF0
FFFFFFFFFFF0
FFFFFFFFFFF0
FFFFFFFFFFE0
FFFFFFFFFFE0
FFFFFFFFFFC0
FFFFFFFFFF80
FFFFFFFFFF00
FFFFFFFFFC00
FFFFFFFFF000
ENDCHAR
STARTCHAR 0077
ENCODING 119
SWIDTH 1777 0
DWIDTH 64 0
BBX 61 36 0 -6
BITMAP
FFE0007FF0003FF8
FFE0007FF0003FF8
FFE0007FF0003FF8
FFE0007FF0003FF8
FFE0007FF0003FF8
FFE0007FF0003FF8
FFE0007FF0003FF8
FFE0007FF0003FF8
FFE0007FF0003FF8
FFE0007FF0003FF8
FFE0007FF0003FF8
FFE0007FF0003FF8
FFE0007FF0003FF8
FFE0007FF0003FF8
FFE0007FF0003FF8
FFE0007FF0003FF8
FFE0007FF0003FF8
FFE0007FF0003FF8
FFE0007FF0003FF8
FFE0007FF0003FF8
FFE0007FF0003FF8
FFE0007FF0003FF8
FFE0007FF0003FF8
FFE0007FF0003FF8
FFE0007FF0003FF8
FFFFFFFFFFFFFFF8
FFFFFFFFFFFFFFF8
FFFFFFFFFFFFFFF0
FFFFFFFFFFFFFFF0
FFFFFFFFFFFFFFF0
FFFFFFFFFFFFFFE0
FFFFFFFFFFFFFFE0
FFFFFFFFFFFFFFC0
FFFFFFFFFFFFFF00
FFFFFFFFFFFFFE00
FFFFFFFFFFFFF800
ENDCHAR
STARTCHAR 0078
ENCODING 120
SWIDTH 1305 0
DWIDTH 47 0
BBX 44 36 0 -6
BITMAP
FFFC0001FFF0
FFFF0007FFF0
FFFFC01FFFF0
FFFFE07FFFF0
FFFFE07FFFF0
FFFFF0FFFFF0
FFFFF9FFFFF0
FFFFF9FFFFF0
FFFFFFFFFFF0
FFFFFFFFFFF0
FFFFFFFFFFF0
001FFFFF8000
001FFFFF8000
001FFFFF8000
001FFFFF8000
001FFFFF8000
001FFFFF8000
001FFFFF8000
001FFFFF8000
001FFFFF8000
001FFFFF8000
001FFFFF8000
001FFFFF8000
001FFFFF8000
001FFFFF8000
FFFFFFFFFFF0
FFFFFFFFFFF0
FFFFFFFFFFF0
FFFFFDFFFFF0
FFFFF9FFFFF0
FFFFF0FFFFF0
FFFFF07FFFF0
FFFFE07FFFF0
FFFFC03FFFF0
FFFF000FFFF0
FFFC0003FFF0
ENDCHAR
STARTCHAR 0079
ENCODING 121
SWIDTH 1305 0
DWIDTH 47 0
BBX 44 36 0 -6
BITMAP
FFE000007FF0
FFE000007FF0
FFE000007FF0
FFE000007FF0
FFE000007FF0
FFE000007FF0
FFE000007FF0
FFE000007FF0
FFE000007FF0
FFE000007FF0
FFE000007FF0
FFE000007FF0
FFE000007FF0
FFE000007FF0
FFFFFFFFFFF0
FFFFFFFFFFF0
FFFFFFFFFFF0
7FFFFFFFFFF0
7FFFFFFFFFE0
3FFFFFFFFFE0
1FFFFFFFFFC0
1FFFFFFFFF80
0FFFFFFFFF00
03FFFFFFFC00
00FFFFFFF000
00007FF00000
00007FF00000
00007FF00000
00007FF00000
00007FF00000
00007FF00000
00007FF00000
00007FF00000
00007FF00000
00007FF00000
00007FF00000
ENDCHAR
STARTCHAR 007A
ENCODING 122
SWIDTH 1305 0
DWIDTH 47 0
BBX 44 36 0 -6
BITMAP
FFFFFFFFFFF0
FFFFFFFFFFF0
FFFFFFFFFFF0
FFFFFFFFFFF0
FFFFFFFFFFF0
FFFFFFFFFFF0
FFFFFFFFFFF0
FFFFFFFFFFF0
000000007FF0
000000007FF0
000000007FF0
000000007FF0
000000007FF0
000000007FF0
00FFFFFFFFF0
07FFFFFFFFF0
0FFFFFFFFFF0
3FFFFFFFFFE0
7FFFFFFFFFC0
7FFFFFFFFF80
FFFFFFFFFE00
FFFFFFFFF800
FFE000000000
FFE000000000
FFE000000000
FFE000000000
FFE000000000
FFE000000000
FFFFFFFFFFF0
FFFFFFFFFFF0
FFFFFFFFFFF0
FFFFFFFFFFF0
FFFFFFFFFFF0
FFFFFFFFFFF0
FFFFFFFFFFF0
FFFFFFFFFFF0
ENDCHAR
STARTCHAR 007B
ENCODING 123
SWIDTH 500 0
DWIDTH 18 0
BBX 0 0 0 0
BITMAP
ENDCHAR
STARTCHAR 007C
ENCODING 124
SWIDTH 500 0
DWIDTH 18 0
BBX 0 0 0 0
BITMAP
ENDCHAR
STARTCHAR 007D
ENCODING 125
SWIDTH 500 0
DWIDTH 18 0
BBX 0 0 0 0
BITMAP
ENDCHAR
STARTCHAR 007E
ENCODING 126
SWIDTH 500 0
DWIDTH 18 0
BBX 0 0 0 0
BITMAP
ENDCHAR
STARTCHAR 00A0
ENCODING 160
SWIDTH 500 0
DWIDTH 18 0
BBX 0 0 0 0
BITMAP
ENDCHAR
STARTCHAR 00A1
ENCODING 161
SWIDTH 500 0
DWIDTH 18 0
BBX 0 0 0 0
BITMAP
ENDCHAR
STARTCHAR 00A2
ENCODING 162
SWIDTH 500 0
DWIDTH 18 0
BBX 0 0 0 0
BITMAP
ENDCHAR
STARTCHAR 00A3
ENCODING 163
SWIDTH 500 0
DWIDTH 18 0
BBX 0 0 0 0
BITMAP
ENDCHAR
STARTCHAR 00A4
ENCODING 164
SWIDTH 500 0
DWIDTH 18 0
BBX 0 0 0 0
BITMAP
ENDCHAR
STARTCHAR 00A5
ENCODING 165
SWIDTH 500 0
DWIDTH 18 0
BBX 0 0 0 0
BITMAP
ENDCHAR
STARTCHAR 00A6
ENCODING 166
SWIDTH 500 0
DWIDTH 18 0
BBX 0 0 0 0
BITMAP
ENDCHAR
STARTCHAR 00A7
ENCODING 167
SWIDTH 500 0
DWIDTH 18 0
BBX 0 0 0 0
BITMAP
ENDCHAR
STARTCHAR 00A8
ENCODING 168
SWIDTH 500 0
DWIDTH 18 0
BBX 0 0 0 0
BITMAP
ENDCHAR
STARTCHAR 00A9
ENCODING 169
SWIDTH 500 0
DWIDTH 18 0
BBX 0 0 0 0
BITMAP
ENDCHAR
STARTCHAR 00AA
ENCODING 170
SWIDTH 500 0
DWIDTH 18 0
BBX 0 0 0 0
BITMAP
ENDCHAR
STARTCHAR 00AB
ENCODING 171
SWIDTH 500 0
DWIDTH 18 0
BBX 0 0 0 0
BITMAP
ENDCHAR
STARTCHAR 00AC
ENCODING 172
SWIDTH 500 0
DWIDTH 18 0
BBX 0 0 0 0
BITMAP
ENDCHAR
STARTCHAR 00AD
ENCODING 173
SWIDTH 500 0
DWIDTH 18 0
BBX 0 0 0 0
BITMAP
ENDCHAR
STARTCHAR 00AE
ENCODING 174
SWIDTH 444 0
DWIDTH 16 0
BBX 14 14 0 17
BITMAP
0FC0
1FE0
7870
6F98
ECDC
CCCC
CD8C
CF0C
CD8C
ECDC
6CD8
3870
1FE0
0FC0
ENDCHAR
STARTCHAR 00AF
ENCODING 175
SWIDTH 500 0
DWIDTH 18 0
BBX 0 0 0 0
BITMAP
ENDCHAR
STARTCHAR 00B0
ENCODING 176
SWIDTH 500 0
DWIDTH 18 0
BBX 0 0 0 0
BITMAP
ENDCHAR
STARTCHAR 00B1
ENCODING 177
SWIDTH 500 0
DWIDTH 18 0
BBX 0 0 0 0
BITMAP
ENDCHAR
STARTCHAR 00B2
ENCODING 178
SWIDTH 500 0
DWIDTH 18 0
BBX 0 0 0 0
BITMAP
ENDCHAR
STARTCHAR 00B3
ENCODING 179
SWIDTH 500 0
DWIDTH 18 0
BBX 0 0 0 0
BITMAP
ENDCHAR
STARTCHAR 00B4
ENCODING 180
SWIDTH 500 0
DWIDTH 18 0
BBX 0 0 0 0
BITMAP
ENDCHAR
STARTCHAR 00B5
ENCODING 181
SWIDTH 500 0
DWIDTH 18 0
BBX 0 0 0 0
BITMAP
ENDCHAR
STARTCHAR 00B6
ENCODING 182
SWIDTH 500 0
DWIDTH 18 0
BBX 0 0 0 0
BITMAP
ENDCHAR
STARTCHAR 00B7
ENCODING 183
SWIDTH 500 0
DWIDTH 18 0
BBX 0 0 0 0
BITMAP
ENDCHAR
STARTCHAR 00B8
ENCODING 184
SWIDTH 500 0
DWIDTH 18 0
BBX 0 0 0 0
BITMAP
ENDCHAR
STARTCHAR 00B9
ENCODING 185
SWIDTH 500 0
DWIDTH 18 0
BBX 0 0 0 0
BITMAP
ENDCHAR
STARTCHAR 00BA
ENCODING 186
SWIDTH 500 0
DWIDTH 18 0
BBX 0 0 0 0
BITMAP
ENDCHAR
STARTCHAR 00BB
ENCODING 187
SWIDTH 500 0
DWIDTH 18 0
BBX 0 0 0 0
BITMAP
ENDCHAR
STARTCHAR 00BC
ENCODING 188
SWIDTH 500 0
DWIDTH 18 0
BBX 0 0 0 0
BITMAP
ENDCHAR
STARTCHAR 00BD
ENCODING 189
SWIDTH 500 0
DWIDTH 18 0
BBX 0 0 0 0
BITMAP
ENDCHAR
STARTCHAR 00BE
ENCODING 190
SWIDTH 500 0
DWIDTH 18 0
BBX 0 0 0 0
BITMAP
ENDCHAR
STARTCHAR 00BF
ENCODING 191
SWIDTH 500 0
DWIDTH 18 0
BBX 0 0 0 0
BITMAP
ENDCHAR
STARTCHAR 00C0
ENCODING 192
SWIDTH 500 0
DWIDTH 18 0
BBX 0 0 0 0
BITMAP
ENDCHAR
STARTCHAR 00C1
ENCODING 193
SWIDTH 500 0
DWIDTH 18 0
BBX 0 0 0 0
BITMAP
ENDCHAR
STARTCHAR 00C2
ENCODING 194
SWIDTH 500 0
DWIDTH 18 0
BBX 0 0 0 0
BITMAP
ENDCHAR
STARTCHAR 00C3
ENCODING 195
SWIDTH 500 0
DWIDTH 18 0
BBX 0 0 0 0
BITMAP
ENDCHAR
STARTCHAR 00C4
ENCODING 196
SWIDTH 500 0
DWIDTH 18 0
BBX 0 0 0 0
BITMAP
ENDCHAR
STARTCHAR 00C5
ENCODING 197
SWIDTH 500 0
DWIDTH 18 0
BBX 0 0 0 0
BITMAP
ENDCHAR
STARTCHAR 00C6
ENCODING 198
SWIDTH 500 0
DWIDTH 18 0
BBX 0 0 0 0
BITMAP
ENDCHAR
STARTCHAR 00C7
ENCODING 199
SWIDTH 500 0
DWIDTH 18 0
BBX 0 0 0 0
BITMAP
ENDCHAR
STARTCHAR 00C8
ENCODING 200
SWIDTH 500 0
DWIDTH 18 0
BBX 0 0 0 0
BITMAP
ENDCHAR
STARTCHAR 00C9
ENCODING 201
SWIDTH 500 0
DWIDTH 18 0
BBX 0 0 0 0
BITMAP
ENDCHAR
STARTCHAR 00CA
ENCODING 202
SWIDTH 500 0
DWIDTH 18 0
BBX 0 0 0 0
BITMAP
ENDCHAR
STARTCHAR 00CB
ENCODING 203
SWIDTH 500 0
DWIDTH 18 0
BBX 0 0 0 0
BITMAP
ENDCHAR
STARTCHAR 00CC
ENCODING 204
SWIDTH 500 0
DWIDTH 18 0
BBX 0 0 0 0
BITMAP
ENDCHAR
STARTCHAR 00CD
ENCODING 205
SWIDTH 500 0
DWIDTH 18 0
BBX 0 0 0 0
BITMAP
ENDCHAR
STARTCHAR 00CE
ENCODING 206
SWIDTH 500 0
DWIDTH 18 0
BBX 0 0 0 0
BITMAP
ENDCHAR
STARTCHAR 00CF
ENCODING 207
SWIDTH 500 0
DWIDTH 18 0
BBX 0 0 0 0
BITMAP
ENDCHAR
STARTCHAR 00D0
ENCODING 208
SWIDTH 500 0
DWIDTH 18 0
BBX 0 0 0 0
BITMAP
ENDCHAR
STARTCHAR 00D1
ENCODING 209
SWIDTH 500 0
DWIDTH 18 0
BBX 0 0 0 0
BITMAP
ENDCHAR
STARTCHAR 00D2
ENCODING 210
SWIDTH 500 0
DWIDTH 18 0
BBX 0 0 0 0
BITMAP
ENDCHAR
STARTCHAR 00D3
ENCODING 211
SWIDTH 500 0
DWIDTH 18 0
BBX 0 0 0 0
BITMAP
ENDCHAR
STARTCHAR 00D4
ENCODING 212
SWIDTH 500 0
DWIDTH 18 0
BBX 0 0 0 0
BITMAP
ENDCHAR
STARTCHAR 00D5
ENCODING 213
SWIDTH 500 0
DWIDTH 18 0
BBX 0 0 0 0
BITMAP
ENDCHAR
STARTCHAR 00D6
ENCODING 214
SWIDTH 500 0
DWIDTH 18 0
BBX 0 0 0 0
BITMAP
ENDCHAR
STARTCHAR 00D7
ENCODING 215
SWIDTH 500 0
DWIDTH 18 0
BBX 0 0 0 0
BITMAP
ENDCHAR
STARTCHAR 00D8
ENCODING 216
SWIDTH 500 0
DWIDTH 18 0
BBX 0 0 0 0
BITMAP
ENDCHAR
STARTCHAR 00D9
ENCODING 217
SWIDTH 500 0
DWIDTH 18 0
BBX 0 0 0 0
BITMAP
ENDCHAR
STARTCHAR 00DA
ENCODING 218
SWIDTH 500 0
DWIDTH 18 0
BBX 0 0 0 0
BITMAP
ENDCHAR
STARTCHAR 00DB
ENCODING 219
SWIDTH 500 0
DWIDTH 18 0
BBX 0 0 0 0
BITMAP
ENDCHAR
STARTCHAR 00DC
ENCODING 220
SWIDTH 500 0
DWIDTH 18 0
BBX 0 0 0 0
BITMAP
ENDCHAR
STARTCHAR 00DD
ENCODING 221
SWIDTH 500 0
DWIDTH 18 0
BBX 0 0 0 0
BITMAP
ENDCHAR
STARTCHAR 00DE
ENCODING 222
SWIDTH 500 0
DWIDTH 18 0
BBX 0 0 0 0
BITMAP
ENDCHAR
STARTCHAR 00DF
ENCODING 223
SWIDTH 500 0
DWIDTH 18 0
BBX 0 0 0 0
BITMAP
ENDCHAR
STARTCHAR 00E0
ENCODING 224
SWIDTH 500 0
DWIDTH 18 0
BBX 0 0 0 0
BITMAP
ENDCHAR
STARTCHAR 00E1
ENCODING 225
SWIDTH 500 0
DWIDTH 18 0
BBX 0 0 0 0
BITMAP
ENDCHAR
STARTCHAR 00E2
ENCODING 226
SWIDTH 500 0
DWIDTH 18 0
BBX 0 0 0 0
BITMAP
ENDCHAR
STARTCHAR 00E3
ENCODING 227
SWIDTH 500 0
DWIDTH 18 0
BBX 0 0 0 0
BITMAP
ENDCHAR
STARTCHAR 00E4
ENCODING 228
SWIDTH 500 0
DWIDTH 18 0
BBX 0 0 0 0
BITMAP
ENDCHAR
STARTCHAR 00E5
ENCODING 229
SWIDTH 500 0
DWIDTH 18 0
BBX 0 0 0 0
BITMAP
ENDCHAR
STARTCHAR 00E6
ENCODING 230
SWIDTH 500 0
DWIDTH 18 0
BBX 0 0 0 0
BITMAP
ENDCHAR
STARTCHAR 00E7
ENCODING 231
SWIDTH 500 0
DWIDTH 18 0
BBX 0 0 0 0
BITMAP
ENDCHAR
STARTCHAR 00E8
ENCODING 232
SWIDTH 500 0
DWIDTH 18 0
BBX 0 0 0 0
BITMAP
ENDCHAR
STARTCHAR 00E9
ENCODING 233
SWIDTH 500 0
DWIDTH 18 0
BBX 0 0 0 0
BITMAP
ENDCHAR
STARTCHAR 00EA
ENCODING 234
SWIDTH 500 0
DWIDTH 18 0
BBX 0 0 0 0
BITMAP
ENDCHAR
STARTCHAR 00EB
ENCODING 235
SWIDTH 500 0
DWIDTH 18 0
BBX 0 0 0 0
BITMAP
ENDCHAR
STARTCHAR 00EC
ENCODING 236
SWIDTH 500 0
DWIDTH 18 0
BBX 0 0 0 0
BITMAP
ENDCHAR
STARTCHAR 00ED
ENCODING 237
SWIDTH 500 0
DWIDTH 18 0
BBX 0 0 0 0
BITMAP
ENDCHAR
STARTCHAR 00EE
ENCODING 238
SWIDTH 500 0
DWIDTH 18 0
BBX 0 0 0 0
BITMAP
ENDCHAR
STARTCHAR 00EF
ENCODING 239
SWIDTH 500 0
DWIDTH 18 0
BBX 0 0 0 0
BITMAP
ENDCHAR
STARTCHAR 00F0
ENCODING 240
SWIDTH 500 0
DWIDTH 18 0
BBX 0 0 0 0
BITMAP
ENDCHAR
STARTCHAR 00F1
ENCODING 241
SWIDTH 500 0
DWIDTH 18 0
BBX 0 0 0 0
BITMAP
ENDCHAR
STARTCHAR 00F2
ENCODING 242
SWIDTH 500 0
DWIDTH 18 0
BBX 0 0 0 0
BITMAP
ENDCHAR
STARTCHAR 00F3
ENCODING 243
SWIDTH 500 0
DWIDTH 18 0
BBX 0 0 0 0
BITMAP
ENDCHAR
STARTCHAR 00F4
ENCODING 244
SWIDTH 500 0
DWIDTH 18 0
BBX 0 0 0 0
BITMAP
ENDCHAR
STARTCHAR 00F5
ENCODING 245
SWIDTH 500 0
DWIDTH 18 0
BBX 0 0 0 0
BITMAP
ENDCHAR
STARTCHAR 00F6
ENCODING 246
SWIDTH 500 0
DWIDTH 18 0
BBX 0 0 0 0
BITMAP
ENDCHAR
STARTCHAR 00F7
ENCODING 247
SWIDTH 500 0
DWIDTH 18 0
BBX 0 0 0 0
BITMAP
ENDCHAR
STARTCHAR 00F8
ENCODING 248
SWIDTH 500 0
DWIDTH 18 0
BBX 0 0 0 0
BITMAP
ENDCHAR
STARTCHAR 00F9
ENCODING 249
SWIDTH 500 0
DWIDTH 18 0
BBX 0 0 0 0
BITMAP
ENDCHAR
STARTCHAR 00FA
ENCODING 250
SWIDTH 500 0
DWIDTH 18 0
BBX 0 0 0 0
BITMAP
ENDCHAR
STARTCHAR 00FB
ENCODING 251
SWIDTH 500 0
DWIDTH 18 0
BBX 0 0 0 0
BITMAP
ENDCHAR
STARTCHAR 00FC
ENCODING 252
SWIDTH 500 0
DWIDTH 18 0
BBX 0 0 0 0
BITMAP
ENDCHAR
STARTCHAR 00FD
ENCODING 253
SWIDTH 500 0
DWIDTH 18 0
BBX 0 0 0 0
BITMAP
ENDCHAR
STARTCHAR 00FE
ENCODING 254
SWIDTH 500 0
DWIDTH 18 0
BBX 0 0 0 0
BITMAP
ENDCHAR
STARTCHAR 00FF
ENCODING 255
SWIDTH 500 0
DWIDTH 18 0
BBX 0 0 0 0
BITMAP
ENDCHAR
STARTCHAR 0152
ENCODING 338
SWIDTH 500 0
DWIDTH 18 0
BBX 0 0 0 0
BITMAP
ENDCHAR
STARTCHAR 0153
ENCODING 339
SWIDTH 500 0
DWIDTH 18 0
BBX 0 0 0 0
BITMAP
ENDCHAR
STARTCHAR 0160
ENCODING 352
SWIDTH 500 0
DWIDTH 18 0
BBX 0 0 0 0
BITMAP
ENDCHAR
STARTCHAR 0161
ENCODING 353
SWIDTH 500 0
DWIDTH 18 0
BBX 0 0 0 0
BITMAP
ENDCHAR
STARTCHAR 0178
ENCODING 376
SWIDTH 500 0
DWIDTH 18 0
BBX 0 0 0 0
BITMAP
ENDCHAR
STARTCHAR 017D
ENCODING 381
SWIDTH 500 0
DWIDTH 18 0
BBX 0 0 0 0
BITMAP
ENDCHAR
STARTCHAR 017E
ENCODING 382
SWIDTH 500 0
DWIDTH 18 0
BBX 0 0 0 0
BITMAP
ENDCHAR
STARTCHAR 0192
ENCODING 402
SWIDTH 500 0
DWIDTH 18 0
BBX 0 0 0 0
BITMAP
ENDCHAR
STARTCHAR 02C6
ENCODING 710
SWIDTH 500 0
DWIDTH 18 0
BBX 0 0 0 0
BITMAP
ENDCHAR
STARTCHAR 02DC
ENCODING 732
SWIDTH 500 0
DWIDTH 18 0
BBX 0 0 0 0
BITMAP
ENDCHAR
STARTCHAR 2013
ENCODING 8211
SWIDTH 500 0
DWIDTH 18 0
BBX 0 0 0 0
BITMAP
ENDCHAR
STARTCHAR 2014
ENCODING 8212
SWIDTH 500 0
DWIDTH 18 0
BBX 0 0 0 0
BITMAP
ENDCHAR
STARTCHAR 2018
ENCODING 8216
SWIDTH 500 0
DWIDTH 18 0
BBX 0 0 0 0
BITMAP
ENDCHAR
STARTCHAR 2019
ENCODING 8217
SWIDTH 500 0
DWIDTH 18 0
BBX 0 0 0 0
BITMAP
ENDCHAR
STARTCHAR 201A
ENCODING 8218
SWIDTH 500 0
DWIDTH 18 0
BBX 0 0 0 0
BITMAP
ENDCHAR
STARTCHAR 201C
ENCODING 8220
SWIDTH 500 0
DWIDTH 18 0
BBX 0 0 0 0
BITMAP
ENDCHAR
STARTCHAR 201D
ENCODING 8221
SWIDTH 500 0
DWIDTH 18 0
BBX 0 0 0 0
BITMAP
ENDCHAR
STARTCHAR 201E
ENCODING 8222
SWIDTH 500 0
DWIDTH 18 0
BBX 0 0 0 0
BITMAP
ENDCHAR
STARTCHAR 2020
ENCODING 8224
SWIDTH 500 0
DWIDTH 18 0
BBX 0 0 0 0
BITMAP
ENDCHAR
STARTCHAR 2021
ENCODING 8225
SWIDTH 500 0
DWIDTH 18 0
BBX 0 0 0 0
BITMAP
ENDCHAR
STARTCHAR 2022
ENCODING 8226
SWIDTH 500 0
DWIDTH 18 0
BBX 0 0 0 0
BITMAP
ENDCHAR
STARTCHAR 2026
ENCODING 8230
SWIDTH 500 0
DWIDTH 18 0
BBX 0 0 0 0
BITMAP
ENDCHAR
STARTCHAR 2030
ENCODING 8240
SWIDTH 500 0
DWIDTH 18 0
BBX 0 0 0 0
BITMAP
ENDCHAR
STARTCHAR 2039
ENCODING 8249
SWIDTH 500 0
DWIDTH 18 0
BBX 0 0 0 0
BITMAP
ENDCHAR
STARTCHAR 203A
ENCODING 8250
SWIDTH 500 0
DWIDTH 18 0
BBX 0 0 0 0
BITMAP
ENDCHAR
STARTCHAR 20AC
ENCODING 8364
SWIDTH 500 0
DWIDTH 18 0
BBX 0 0 0 0
BITMAP
ENDCHAR
STARTCHAR 2122
ENCODING 8482
SWIDTH 500 0
DWIDTH 18 0
BBX 0 0 0 0
BITMAP
ENDCHAR
STARTCHAR 2219
ENCODING 8729
SWIDTH 500 0
DWIDTH 18 0
BBX 0 0 0 0
BITMAP
ENDCHAR
ENDFONT
